<?xml version="1.0" encoding="utf-8"?>
<!-- Generator: Adobe Illustrator 24.3.0, SVG Export Plug-In . SVG Version: 6.00 Build 0) -->
<svg version="1.1" id="Layer_1" xmlns="http://www.w3.org/2000/svg" xmlns:xlink="http://www.w3.org/1999/xlink" x="0px" y="0px"
width="60" height="60" viewBox="0 0 60 60" style="enable-background:new 0 0 60 60;" xml:space="preserve">
<style type="text/css">
.st0{fill:#FFFFFF;}
.st1{fill:#9F92C6;}
</style>
<g id="Group_1136" transform="translate(-655 -45)">
<g transform="matrix(1, 0, 0, 1, 655, 45)">
<ellipse id="Ellipse_2-2_1_" class="st0" cx="29.93" cy="30.23" rx="29.91" ry="29.82"/>
</g>
<ellipse id="Ellipse_3" class="st1" cx="684.93" cy="75.23" rx="23.61" ry="23.54"/>
<path id="Icon_awesome-book" class="st0" d="M697.12,80.97V62.43c0-0.73-0.59-1.32-1.32-1.32c0,0,0,0-0.01,0h-18.15
c-2.93,0-5.31,2.37-5.31,5.3v17.66c0,2.92,2.38,5.3,5.31,5.3h18.15c0.73,0,1.33-0.59,1.33-1.32c0,0,0,0,0-0.01v-0.88
c0-0.4-0.18-0.78-0.49-1.03c-0.23-1.36-0.23-2.76,0-4.12C696.94,81.75,697.12,81.37,697.12,80.97z M679.42,68.5
c0-0.18,0.15-0.33,0.33-0.33h11.73c0.18,0,0.33,0.15,0.33,0.33v1.1c0,0.18-0.15,0.33-0.33,0.33h-11.73c-0.18,0-0.33-0.15-0.33-0.33
V68.5z M679.42,72.03c0-0.18,0.15-0.33,0.33-0.33h11.73c0.18,0,0.33,0.15,0.33,0.33v1.1c0,0.18-0.15,0.33-0.33,0.33h-11.73
c-0.18,0-0.33-0.15-0.33-0.33V72.03z M693.44,85.83h-15.79c-0.98,0-1.77-0.79-1.77-1.77s0.79-1.77,1.77-1.77h15.79
C693.33,83.47,693.33,84.65,693.44,85.83z"/>
</g>
</svg>