<svg xmlns="http://www.w3.org/2000/svg" width="250" height="160.945" viewBox="0 0 250 160.945">
    <defs>
        <style>
            .cls-2{fill:#291670}.cls-4{fill:#44002d}.cls-5{fill:#aa1a7a}.cls-6{fill:#fff}
        </style>
    </defs>
    <g id="Group_780" data-name="Group 780" transform="translate(-55 -250)">
        <g id="Group_681" data-name="Group 681" transform="translate(0 29.078)">
            <text id="FundooMoms" fill="#9b1c70" font-family="Nunito-ExtraBold, Nunito" font-size="40px" font-weight="800" letter-spacing="-0.01em" transform="translate(55 356)">
                <tspan x="0" y="0">FundooMoms</tspan>
            </text>
            <g id="Group_331" data-name="Group 331" transform="translate(58 367.425)">
                <path id="Path_282" d="M179.486 141.286a.829.829 0 0 1 .225.6v9.826a.829.829 0 0 1-.225.6.79.79 0 0 1-.6.233.8.8 0 0 1-.594-.225.824.824 0 0 1-.225-.611v-4.326h-6.337v4.326a.829.829 0 0 1-.225.6.789.789 0 0 1-.594.233.806.806 0 0 1-.6-.225.824.824 0 0 1-.225-.611v-9.826a.829.829 0 0 1 .225-.6.876.876 0 0 1 1.19 0 .829.829 0 0 1 .225.6v4.149h6.337v-4.149a.829.829 0 0 1 .225-.6.875.875 0 0 1 1.189 0z" class="cls-2" data-name="Path 282" transform="translate(-170.094 -141.036)"/>
                <path id="Path_283" d="M189.5 150.548a.69.69 0 0 1 .144.451.925.925 0 0 1-.579.788 5.1 5.1 0 0 1-1.23.5 4.973 4.973 0 0 1-1.279.176 3.96 3.96 0 0 1-2.943-1.086 4.022 4.022 0 0 1-1.077-2.967 4.644 4.644 0 0 1 .475-2.139 3.484 3.484 0 0 1 1.335-1.447 3.727 3.727 0 0 1 1.954-.514 3.193 3.193 0 0 1 2.493 1.013 3.921 3.921 0 0 1 .916 2.733q0 .642-.579.643h-4.969q.162 2.493 2.4 2.493a2.974 2.974 0 0 0 1.03-.161 7.561 7.561 0 0 0 .917-.418 2.854 2.854 0 0 1 .265-.137.876.876 0 0 1 .361-.1.459.459 0 0 1 .366.172zm-4.663-4.454a2.783 2.783 0 0 0-.676 1.673h4.139a2.689 2.689 0 0 0-.555-1.681 1.777 1.777 0 0 0-1.423-.587 1.963 1.963 0 0 0-1.49.596z" class="cls-2" data-name="Path 283" transform="translate(-169.634 -140.916)"/>
                <path id="Path_284" d="M192.644 152.358a.7.7 0 0 1-.233-.579v-9.938a.729.729 0 0 1 .233-.587.86.86 0 0 1 .587-.2.833.833 0 0 1 .579.2.748.748 0 0 1 .225.587v9.938a.722.722 0 0 1-.225.579.859.859 0 0 1-.579.193.887.887 0 0 1-.587-.193z" class="cls-2" data-name="Path 284" transform="translate(-169.269 -141.036)"/>
                <path id="Path_285" d="M203.427 144.824a3.42 3.42 0 0 1 1.238 1.447 4.97 4.97 0 0 1 .443 2.156 4.9 4.9 0 0 1-.434 2.122 3.285 3.285 0 0 1-1.23 1.416 3.373 3.373 0 0 1-1.826.5 3.14 3.14 0 0 1-1.56-.377 2.486 2.486 0 0 1-1.029-1.088v3.586a.7.7 0 0 1-.218.539.808.808 0 0 1-.57.2.872.872 0 0 1-.6-.209.719.719 0 0 1-.233-.563v-9.423a.755.755 0 0 1 .225-.571.819.819 0 0 1 .6-.217.8.8 0 0 1 .579.217.756.756 0 0 1 .226.571v.658a2.532 2.532 0 0 1 1.029-1.093 3.09 3.09 0 0 1 1.56-.386 3.258 3.258 0 0 1 1.8.515zm-.555 5.636a3.156 3.156 0 0 0 .579-2.033 3.266 3.266 0 0 0-.587-2.075 2.188 2.188 0 0 0-3.264-.017 4 4 0 0 0 0 4.117 1.956 1.956 0 0 0 1.632.725 1.987 1.987 0 0 0 1.64-.717z" class="cls-2" data-name="Path 285" transform="translate(-169.085 -140.916)"/>
                <path id="Path_286" d="M207.9 142.63a.885.885 0 0 1-.273-.676.856.856 0 0 1 .273-.667 1.208 1.208 0 0 1 1.471 0 .845.845 0 0 1 .282.667.886.886 0 0 1-.274.676 1.193 1.193 0 0 1-1.48 0zm.153 9.729a.707.707 0 0 1-.233-.579v-6.529a.734.734 0 0 1 .233-.588.867.867 0 0 1 .587-.2.838.838 0 0 1 .579.2.747.747 0 0 1 .225.588v6.529a.719.719 0 0 1-.225.579.859.859 0 0 1-.579.193.889.889 0 0 1-.59-.193z" class="cls-2" data-name="Path 286" transform="translate(-168.707 -141.037)"/>
                <path id="Path_287" d="M219.847 147.477v4.182a.739.739 0 0 1-.217.57.857.857 0 0 1-.6.2.812.812 0 0 1-.587-.208.749.749 0 0 1-.217-.563v-4.1a2.237 2.237 0 0 0-.4-1.463 1.519 1.519 0 0 0-1.229-.467 2.1 2.1 0 0 0-1.577.611 2.255 2.255 0 0 0-.594 1.642v3.779a.746.746 0 0 1-.218.563.811.811 0 0 1-.587.208.843.843 0 0 1-.6-.208.732.732 0 0 1-.225-.563v-6.545a.724.724 0 0 1 .233-.555.826.826 0 0 1 .587-.217.762.762 0 0 1 .563.208.743.743 0 0 1 .209.548v.658a2.606 2.606 0 0 1 1.077-1.077 3.247 3.247 0 0 1 1.56-.369q2.822-.001 2.822 3.166z" class="cls-2" data-name="Path 287" transform="translate(-168.515 -140.916)"/>
                <path id="Path_288" d="M230.077 144.559a.77.77 0 0 1 .218.571v6.593a3.6 3.6 0 0 1-.957 2.718 3.935 3.935 0 0 1-2.823.917 5.787 5.787 0 0 1-2.894-.66.96.96 0 0 1-.6-.8.665.665 0 0 1 .153-.45.48.48 0 0 1 .378-.177 1.653 1.653 0 0 1 .658.242 8.067 8.067 0 0 0 1.077.426 4.062 4.062 0 0 0 1.19.153 1.969 1.969 0 0 0 2.219-2.236v-1.238a2.462 2.462 0 0 1-1.029 1.1 3.2 3.2 0 0 1-1.608.394 3.492 3.492 0 0 1-1.833-.482 3.242 3.242 0 0 1-1.246-1.368 4.51 4.51 0 0 1-.443-2.042 4.449 4.449 0 0 1 .45-2.043 3.317 3.317 0 0 1 3.073-1.864 3.164 3.164 0 0 1 1.583.386 2.523 2.523 0 0 1 1.038 1.093v-.675a.749.749 0 0 1 .217-.563.812.812 0 0 1 .587-.208.791.791 0 0 1 .592.213zm-1.986 5.572a2.84 2.84 0 0 0 .6-1.913 2.869 2.869 0 0 0-.588-1.906 2.031 2.031 0 0 0-1.648-.7 2.093 2.093 0 0 0-1.664.691 3.317 3.317 0 0 0 .008 3.827 2.1 2.1 0 0 0 1.656.693 2.05 2.05 0 0 0 1.636-.693z" class="cls-2" data-name="Path 288" transform="translate(-168.155 -140.916)"/>
                <path id="Path_289" d="M249.611 141.286a.829.829 0 0 1 .225.6v9.874a.8.8 0 0 1-.2.58.733.733 0 0 1-.554.208.689.689 0 0 1-.532-.208.824.824 0 0 1-.193-.58v-7.478l-3.151 6a.833.833 0 0 1-1.576 0l-3.168-5.934v7.413a.824.824 0 0 1-.193.58.708.708 0 0 1-.546.208.7.7 0 0 1-.539-.217.809.809 0 0 1-.2-.571v-9.874a.829.829 0 0 1 .225-.6.77.77 0 0 1 .58-.233.91.91 0 0 1 .8.579l3.843 7.349 3.812-7.349a.9.9 0 0 1 .788-.579.77.77 0 0 1 .579.232z" class="cls-2" data-name="Path 289" transform="translate(-167.548 -141.036)"/>
                <path id="Path_290" d="M254.453 151.965a3.36 3.36 0 0 1-1.35-1.424 5.126 5.126 0 0 1 0-4.31 3.361 3.361 0 0 1 1.35-1.424 4.407 4.407 0 0 1 4.069 0 3.363 3.363 0 0 1 1.351 1.424 5.136 5.136 0 0 1 0 4.31 3.363 3.363 0 0 1-1.351 1.424 4.407 4.407 0 0 1-4.069 0zm3.683-1.5a4.018 4.018 0 0 0-.008-4.141 2.238 2.238 0 0 0-3.281 0 4.018 4.018 0 0 0-.008 4.141 2.273 2.273 0 0 0 3.3 0z" class="cls-2" data-name="Path 290" transform="translate(-167.043 -140.916)"/>
                <path id="Path_291" d="M267.41 151.457a.576.576 0 0 1 .153.426.553.553 0 0 1-.25.491 1.155 1.155 0 0 1-.731.137l-.433-.032a2.816 2.816 0 0 1-1.946-.8 2.949 2.949 0 0 1-.643-2.066v-3.78h-.965q-.708 0-.707-.626a.588.588 0 0 1 .186-.459.746.746 0 0 1 .522-.168h.965v-1.657a.762.762 0 0 1 .217-.579.811.811 0 0 1 .587-.209.844.844 0 0 1 .6.209.752.752 0 0 1 .225.579v1.657h1.593a.746.746 0 0 1 .522.168.592.592 0 0 1 .186.459.583.583 0 0 1-.186.466.769.769 0 0 1-.522.161h-1.593v3.892a1.644 1.644 0 0 0 .314 1.111 1.357 1.357 0 0 0 .956.4l.451.032a.806.806 0 0 1 .499.188z" class="cls-2" data-name="Path 291" transform="translate(-166.701 -140.996)"/>
                <path id="Path_292" d="M276.777 147.6v4.182a.732.732 0 0 1-.225.563.84.84 0 0 1-.6.208.815.815 0 0 1-.587-.208.749.749 0 0 1-.217-.563v-4.165a2.113 2.113 0 0 0-.394-1.415 1.552 1.552 0 0 0-1.23-.45 2.1 2.1 0 0 0-1.576.611 2.251 2.251 0 0 0-.594 1.642v3.779a.75.75 0 0 1-.218.563.812.812 0 0 1-.587.208.84.84 0 0 1-.6-.208.732.732 0 0 1-.225-.563v-9.955a.716.716 0 0 1 .233-.562.865.865 0 0 1 .6-.209.8.8 0 0 1 .571.2.7.7 0 0 1 .218.538v4.02a2.673 2.673 0 0 1 1.076-1.029 3.282 3.282 0 0 1 1.544-.354q2.812-.003 2.811 3.167z" class="cls-2" data-name="Path 292" transform="translate(-166.411 -141.036)"/>
                <path id="Path_293" d="M286.436 150.548a.684.684 0 0 1 .144.451.925.925 0 0 1-.579.788 5.114 5.114 0 0 1-1.229.5 4.982 4.982 0 0 1-1.28.176 3.959 3.959 0 0 1-2.943-1.086 4.023 4.023 0 0 1-1.077-2.967 4.657 4.657 0 0 1 .474-2.139 3.5 3.5 0 0 1 1.336-1.447 3.73 3.73 0 0 1 1.954-.514 3.192 3.192 0 0 1 2.493 1.013 3.916 3.916 0 0 1 .916 2.733q0 .642-.579.643H281.1q.16 2.493 2.4 2.493a2.964 2.964 0 0 0 1.029-.161 7.511 7.511 0 0 0 .919-.418 2.715 2.715 0 0 1 .263-.137.885.885 0 0 1 .362-.1.457.457 0 0 1 .363.172zm-4.664-4.454a2.776 2.776 0 0 0-.674 1.673h4.15a2.688 2.688 0 0 0-.557-1.681 1.778 1.778 0 0 0-1.422-.587 1.966 1.966 0 0 0-1.497.596z" class="cls-2" data-name="Path 293" transform="translate(-166.051 -140.916)"/>
                <path id="Path_294" d="M294.24 145a.719.719 0 0 1-.177.53.952.952 0 0 1-.611.209l-.482.048a2.084 2.084 0 0 0-1.5.708 2.29 2.29 0 0 0-.49 1.48v3.682a.722.722 0 0 1-.225.579.863.863 0 0 1-.579.193.894.894 0 0 1-.588-.193.707.707 0 0 1-.233-.579v-6.545a.715.715 0 0 1 .233-.571.871.871 0 0 1 .588-.2.764.764 0 0 1 .538.2.723.723 0 0 1 .217.556v.771a2.365 2.365 0 0 1 .933-1.077 3.126 3.126 0 0 1 1.383-.434l.225-.016c.511-.032.768.187.768.659z" class="cls-2" data-name="Path 294" transform="translate(-165.686 -140.915)"/>
                <path id="Path_295" d="M296.257 151.788a1.224 1.224 0 0 1-.411-.37.8.8 0 0 1-.12-.433.667.667 0 0 1 .145-.436.457.457 0 0 1 .369-.176 1.591 1.591 0 0 1 .66.257 6.806 6.806 0 0 0 .941.419 3.526 3.526 0 0 0 1.15.161 2.255 2.255 0 0 0 1.206-.274.864.864 0 0 0 .433-.773.751.751 0 0 0-.168-.514 1.424 1.424 0 0 0-.587-.345 10.121 10.121 0 0 0-1.238-.33 4.776 4.776 0 0 1-2.036-.829 1.766 1.766 0 0 1-.618-1.423 2.067 2.067 0 0 1 .4-1.246 2.613 2.613 0 0 1 1.108-.861 4.035 4.035 0 0 1 1.609-.3 4.71 4.71 0 0 1 1.254.168 3.573 3.573 0 0 1 1.077.49 1 1 0 0 1 .531.82.636.636 0 0 1-.153.435.461.461 0 0 1-.361.176.7.7 0 0 1-.289-.064 3.831 3.831 0 0 1-.387-.208 5.474 5.474 0 0 0-.811-.4 2.663 2.663 0 0 0-.942-.144 1.848 1.848 0 0 0-1.086.289.916.916 0 0 0-.411.788.792.792 0 0 0 .378.7 4.611 4.611 0 0 0 1.424.475 7.834 7.834 0 0 1 1.688.514 2 2 0 0 1 .876.715 2.029 2.029 0 0 1 .265 1.086 1.976 1.976 0 0 1-.876 1.68 3.9 3.9 0 0 1-2.339.636 4.863 4.863 0 0 1-2.681-.683z" class="cls-2" data-name="Path 295" transform="translate(-165.45 -140.916)"/>
                <path id="Path_296" d="M319.82 141.286a.834.834 0 0 1 .225.6v9.826a.834.834 0 0 1-.225.6.794.794 0 0 1-.6.233.805.805 0 0 1-.6-.225.828.828 0 0 1-.225-.611v-4.326h-6.336v4.326a.829.829 0 0 1-.225.6.79.79 0 0 1-.6.233.805.805 0 0 1-.6-.225.828.828 0 0 1-.225-.611v-9.826a.833.833 0 0 1 .225-.6.876.876 0 0 1 1.19 0 .829.829 0 0 1 .225.6v4.149h6.351v-4.149a.833.833 0 0 1 .225-.6.877.877 0 0 1 1.191 0z" class="cls-2" data-name="Path 296" transform="translate(-164.907 -141.036)"/>
                <path id="Path_297" d="M324.69 151.965a3.363 3.363 0 0 1-1.351-1.424 5.136 5.136 0 0 1 0-4.31 3.363 3.363 0 0 1 1.351-1.424 4.4 4.4 0 0 1 4.068 0 3.363 3.363 0 0 1 1.351 1.424 5.126 5.126 0 0 1 0 4.31 3.363 3.363 0 0 1-1.351 1.424 4.405 4.405 0 0 1-4.068 0zm3.682-1.5a4.015 4.015 0 0 0-.007-4.141 2.238 2.238 0 0 0-3.281 0 4.012 4.012 0 0 0-.008 4.141 2.272 2.272 0 0 0 3.3 0z" class="cls-2" data-name="Path 297" transform="translate(-164.447 -140.916)"/>
                <path id="Path_298" d="M344.93 147.477v4.182a.726.726 0 0 1-.225.57.864.864 0 0 1-.6.2.843.843 0 0 1-.58-.2.726.726 0 0 1-.225-.57v-4.165a2.277 2.277 0 0 0-.354-1.423 1.334 1.334 0 0 0-1.109-.443 1.744 1.744 0 0 0-1.4.6 2.457 2.457 0 0 0-.514 1.649v3.779a.726.726 0 0 1-.225.57.864.864 0 0 1-.6.2.835.835 0 0 1-.579-.2.719.719 0 0 1-.225-.57v-4.165a2.283 2.283 0 0 0-.355-1.423 1.332 1.332 0 0 0-1.11-.443 1.766 1.766 0 0 0-1.407.6 2.432 2.432 0 0 0-.523 1.649v3.779a.723.723 0 0 1-.225.57.838.838 0 0 1-.579.2.872.872 0 0 1-.588-.2.714.714 0 0 1-.232-.57v-6.545a.709.709 0 0 1 .242-.563.855.855 0 0 1 .579-.208.784.784 0 0 1 .555.2.72.72 0 0 1 .217.556v.594a2.458 2.458 0 0 1 .982-1.029 2.9 2.9 0 0 1 1.447-.354 2.74 2.74 0 0 1 1.487.369 2.209 2.209 0 0 1 .877 1.142 2.686 2.686 0 0 1 1.044-1.1 3.031 3.031 0 0 1 1.577-.41q2.648.005 2.648 3.172z" class="cls-2" data-name="Path 298" transform="translate(-164.062 -140.916)"/>
                <path id="Path_299" d="M354.425 150.548a.69.69 0 0 1 .144.451.926.926 0 0 1-.58.788 5.086 5.086 0 0 1-1.23.5 4.974 4.974 0 0 1-1.279.176 3.959 3.959 0 0 1-2.943-1.086 4.022 4.022 0 0 1-1.077-2.967 4.657 4.657 0 0 1 .475-2.139 3.477 3.477 0 0 1 1.335-1.447 3.729 3.729 0 0 1 1.954-.514 3.193 3.193 0 0 1 2.493 1.013 3.921 3.921 0 0 1 .917 2.733q0 .642-.58.643h-4.968q.159 2.493 2.4 2.493a2.978 2.978 0 0 0 1.03-.161 7.56 7.56 0 0 0 .917-.418 2.86 2.86 0 0 1 .265-.137.876.876 0 0 1 .361-.1.462.462 0 0 1 .366.172zm-4.664-4.454a2.764 2.764 0 0 0-.675 1.673h4.149a2.689 2.689 0 0 0-.556-1.681 1.777 1.777 0 0 0-1.423-.587 1.962 1.962 0 0 0-1.495.596z" class="cls-2" data-name="Path 299" transform="translate(-163.538 -140.916)"/>
                <path id="Path_300" d="M357.406 151.788a1.225 1.225 0 0 1-.411-.37.8.8 0 0 1-.12-.433.667.667 0 0 1 .145-.436.457.457 0 0 1 .369-.176 1.6 1.6 0 0 1 .659.257 6.805 6.805 0 0 0 .941.419 3.526 3.526 0 0 0 1.15.161 2.255 2.255 0 0 0 1.206-.274.864.864 0 0 0 .433-.773.751.751 0 0 0-.168-.514 1.431 1.431 0 0 0-.587-.345 10.121 10.121 0 0 0-1.238-.33 4.776 4.776 0 0 1-2.036-.829 1.763 1.763 0 0 1-.618-1.423 2.067 2.067 0 0 1 .4-1.246 2.607 2.607 0 0 1 1.108-.861 4.035 4.035 0 0 1 1.609-.3 4.71 4.71 0 0 1 1.254.168 3.573 3.573 0 0 1 1.077.49 1 1 0 0 1 .531.82.636.636 0 0 1-.153.435.461.461 0 0 1-.361.176.7.7 0 0 1-.29-.064 3.726 3.726 0 0 1-.386-.208 5.472 5.472 0 0 0-.811-.4 2.663 2.663 0 0 0-.942-.144 1.848 1.848 0 0 0-1.086.289.916.916 0 0 0-.411.788.792.792 0 0 0 .379.7 4.611 4.611 0 0 0 1.424.475 7.8 7.8 0 0 1 1.687.514 2 2 0 0 1 .877.715 2.029 2.029 0 0 1 .266 1.086 1.976 1.976 0 0 1-.876 1.68 3.9 3.9 0 0 1-2.339.636 4.863 4.863 0 0 1-2.682-.683z" class="cls-2" data-name="Path 300" transform="translate(-163.19 -140.916)"/>
                <path id="Path_301" d="M367.431 151.965a3.4 3.4 0 0 1-1.336-1.416 4.99 4.99 0 0 1 .016-4.277 3.564 3.564 0 0 1 1.375-1.447 3.958 3.958 0 0 1 2.027-.514 4.445 4.445 0 0 1 1.23.176 4.231 4.231 0 0 1 1.1.482 1 1 0 0 1 .514.82.719.719 0 0 1-.145.458.45.45 0 0 1-.369.186.636.636 0 0 1-.289-.073 4.241 4.241 0 0 1-.37-.218 4.546 4.546 0 0 0-.748-.394 2.273 2.273 0 0 0-.829-.136 2.066 2.066 0 0 0-1.7.739 3.17 3.17 0 0 0-.6 2.058 3.1 3.1 0 0 0 .6 2.035 2.073 2.073 0 0 0 1.688.716 2.34 2.34 0 0 0 .853-.144 4.534 4.534 0 0 0 .755-.387 2.982 2.982 0 0 1 .355-.193.8.8 0 0 1 .321-.081.45.45 0 0 1 .369.186.721.721 0 0 1 .145.458.735.735 0 0 1-.12.41 1.422 1.422 0 0 1-.411.378 3.873 3.873 0 0 1-1.125.5 4.881 4.881 0 0 1-1.3.176 3.926 3.926 0 0 1-2.006-.498z" class="cls-2" data-name="Path 301" transform="translate(-162.866 -140.916)"/>
                <path id="Path_302" d="M381.83 147.6v4.182a.732.732 0 0 1-.225.563.842.842 0 0 1-.6.208.812.812 0 0 1-.587-.208.749.749 0 0 1-.217-.563v-4.165a2.113 2.113 0 0 0-.4-1.415 1.551 1.551 0 0 0-1.229-.45 2.1 2.1 0 0 0-1.576.611 2.251 2.251 0 0 0-.6 1.642v3.779a.746.746 0 0 1-.218.563.811.811 0 0 1-.587.208.842.842 0 0 1-.6-.208.736.736 0 0 1-.225-.563v-9.955a.716.716 0 0 1 .233-.562.868.868 0 0 1 .6-.209.8.8 0 0 1 .571.2.7.7 0 0 1 .218.538v4.02a2.675 2.675 0 0 1 1.077-1.029 3.284 3.284 0 0 1 1.544-.354q2.82-.003 2.821 3.167z" class="cls-2" data-name="Path 302" transform="translate(-162.528 -141.036)"/>
                <path id="Path_303" d="M386.35 151.965a3.362 3.362 0 0 1-1.35-1.424 5.136 5.136 0 0 1 0-4.31 3.363 3.363 0 0 1 1.351-1.424 4.4 4.4 0 0 1 4.068 0 3.363 3.363 0 0 1 1.351 1.424 5.126 5.126 0 0 1 0 4.31 3.362 3.362 0 0 1-1.351 1.424 4.4 4.4 0 0 1-4.068 0zm3.682-1.5a4.014 4.014 0 0 0-.007-4.141 2.238 2.238 0 0 0-3.281 0 4.011 4.011 0 0 0-.008 4.141 2.272 2.272 0 0 0 3.3 0z" class="cls-2" data-name="Path 303" transform="translate(-162.168 -140.916)"/>
                <path id="Path_304" d="M396.338 151.965a3.363 3.363 0 0 1-1.351-1.424 5.136 5.136 0 0 1 0-4.31 3.363 3.363 0 0 1 1.351-1.424 4.4 4.4 0 0 1 4.068 0 3.363 3.363 0 0 1 1.351 1.424 5.135 5.135 0 0 1 0 4.31 3.363 3.363 0 0 1-1.351 1.424 4.4 4.4 0 0 1-4.068 0zm3.682-1.5a4.014 4.014 0 0 0-.007-4.141 2.239 2.239 0 0 0-3.282 0 4.015 4.015 0 0 0-.007 4.141 2.272 2.272 0 0 0 3.3 0z" class="cls-2" data-name="Path 304" transform="translate(-161.799 -140.916)"/>
                <path id="Path_305" d="M405.166 152.358a.707.707 0 0 1-.233-.579v-9.938a.732.732 0 0 1 .233-.587.867.867 0 0 1 .588-.2.837.837 0 0 1 .579.2.748.748 0 0 1 .225.587v9.938a.722.722 0 0 1-.225.579.863.863 0 0 1-.579.193.894.894 0 0 1-.588-.193z" class="cls-2" data-name="Path 305" transform="translate(-161.413 -141.036)"/>
            </g>
        </g>
        <g id="Group_332" data-name="Group 332" transform="translate(147 250)">
            <path id="Path_306" fill="none" d="M136.23 115.137h.011v-.115c-.002.039-.007.078-.011.115z" data-name="Path 306" transform="translate(-101.465 -86.246)"/>
            <path id="Path_307" d="M132.962 113.86c-.019 0-.035.005-.056.007.015.076.046.145.056.223z" class="cls-4" data-name="Path 307" transform="translate(-102.639 -86.657)"/>
            <path id="Path_308" d="M138.795 144.835c-1.439-4.22-10.483-5.625-10.483-5.625l-8.27 13.72c8.939.647 14.348 6.564 19.007 13.442v-20.529a3.069 3.069 0 0 0-.254-1.008z" class="cls-5" data-name="Path 308" transform="translate(-107.185 -77.699)"/>
            <path id="Path_309" d="M131.814 156.309a18.508 18.508 0 0 0-12.006-2.635c.352-.558.562-.9.781-1.236 1.858-2.843 6.15-9.468 6.15-9.468a41.068 41.068 0 0 0-4.49.353 6.5 6.5 0 0 0-2.534 1.137 7.492 7.492 0 0 0-1.715 2.209q-.473.763-.941 1.528-1.4 2.29-2.795 4.588-1.293 2.13-2.582 4.262l-1.137 1.881c11.046-3.3 20.77-1.552 29.947 5.876a26.221 26.221 0 0 0-8.678-8.495z" class="cls-4" data-name="Path 309" transform="translate(-110.542 -76.37)"/>
            <path id="Path_310" d="M154.888 152.93l-8.27-13.72s-9.045 1.4-10.483 5.625a3.069 3.069 0 0 0-.253 1.008v20.529c4.657-6.878 10.067-12.795 19.006-13.442z" class="cls-5" data-name="Path 310" transform="translate(-101.588 -77.699)"/>
            <path id="Path_311" d="M166.106 157.046q-1.289-2.132-2.582-4.262-1.393-2.3-2.795-4.588-.469-.765-.941-1.528a7.492 7.492 0 0 0-1.719-2.209 6.5 6.5 0 0 0-2.533-1.137 41.069 41.069 0 0 0-4.49-.353s4.292 6.625 6.15 9.468c.219.336.429.678.781 1.236a18.508 18.508 0 0 0-12.006 2.635 26.221 26.221 0 0 0-8.675 8.5c9.177-7.429 18.9-9.181 29.947-5.876z" class="cls-4" data-name="Path 311" transform="translate(-101.088 -76.37)"/>
            <path id="Path_312" d="M137.229 114.928c.015 0 .007.015.015.02.056-.019.078-.03-.015-.02z" class="cls-4" data-name="Path 312" transform="translate(-101.112 -86.28)"/>
            <path id="Path_313" d="M136.247 115.079v-.47c0 .184-.007.372-.008.559.001-.03.008-.058.008-.089z" class="cls-6" data-name="Path 313" transform="translate(-101.462 -86.392)"/>
            <path id="Path_314" d="M132.947 114.03v1.253c0 .019.005.035.005.054.007-.1.007-.206.016-.307a4.594 4.594 0 0 0-.021-1z" class="cls-6" data-name="Path 314" transform="translate(-102.625 -86.597)"/>
            <path id="Path_315" d="M159.944 139.944c-.342-7.315-3.033-14.171-8.847-18.614a26.681 26.681 0 0 0 2.1-7.7c.533-4.164.62-8.311-1.177-12.268a12.433 12.433 0 0 0-10.237-7.549c-.125-.012-.249-.022-.374-.03 0 0-.858-.03-.861-.014l-.223.007a12.4 12.4 0 0 0-10.9 7.586c-1.8 3.957-1.711 8.1-1.179 12.268a27.164 27.164 0 0 0 1.851 7.1 21.075 21.075 0 0 0-8.418 10.824 31.8 31.8 0 0 0-1.41 6.9c-.692 6.707.689 16.052 3.221 17.6a2.644 2.644 0 0 0 4.025-2.251v-.551a12.891 12.891 0 0 1 8.825-12.312 7.378 7.378 0 1 1 7.059-.019 12.34 12.34 0 0 1 8.791 11.814v.382a2.653 2.653 0 0 0 3.861 2.417c2.672-1.596 4.273-7.444 3.893-15.59zM143.3 122.427c-.008-.005 0-.018-.015-.02.091-.007.073.001.015.02zm-.356-2.774c-.4.3-.915.782-.942 1.209-.026.369-.038.742-.049 1.115v.47c0 .031-.007.06-.008.089v.115h-.011a2.223 2.223 0 0 1-4.438-.15c0-.019-.005-.035-.005-.054v-1.253c-.009-.079-.041-.148-.055-.223a3.9 3.9 0 0 0-1.249-2.123c-2.55-2.425-3.765-7.748-3.133-11.766.932 1.743 2.9 3.83 7 3.946 0 0-5.928-2.439-6.108-6.778l.028-.058c2.5 5.039 6.682 7.919 11.915 9.391a6.573 6.573 0 0 1-2.947 6.07z" class="cls-4" data-name="Path 315" transform="translate(-107.165 -93.759)"/>
        </g>
    </g>
</svg>
